<svg width="257" height="257" viewBox="0 0 257 257" fill="none" xmlns="http://www.w3.org/2000/svg">
<g clip-path="url(#clip0_13_6)">
<path d="M231.294 0.463013H25.4642C11.6352 0.463013 0.413174 11.657 0.378174 25.492V231.432C0.412174 245.266 11.6352 256.461 25.4642 256.461H231.294C245.128 256.461 256.345 245.267 256.38 231.432V25.492C256.346 11.658 245.123 0.463013 231.294 0.463013Z" fill="black"/>
<path d="M34.3472 81.026V175.574H60.8622C81.8622 175.608 88.4962 159.323 88.4962 148.574L88.4902 108.043C88.4842 97.289 81.6732 81.026 61.4222 81.026H34.3472ZM109.924 81.043C103.553 81.203 98.5072 86.493 98.6622 92.866V164.358C98.8222 170.735 104.124 175.775 110.501 175.608H146.032V158.713H115.581V136.763H134.193V119.867H115.581V97.912H146.026L146.032 81.044L109.924 81.043ZM156.124 81.049L178.142 163.792C184.193 177.866 197.707 181.362 205.25 163.792L227.228 81.049H208.611L191.714 146.032L174.736 81.049H156.124ZM52.3942 98.717H62.3592C64.5762 98.717 66.7992 99.545 69.0172 101.202C71.2282 102.859 72.3432 105.352 72.3482 108.665V148.465C72.3482 151.785 71.2392 154.271 69.0222 155.929C66.8052 157.586 64.5832 158.414 62.3662 158.414L52.3942 158.415V98.717Z" fill="white"/>
</g>
<defs>
<clipPath id="clip0_13_6">
<rect width="256.002" height="255.998" fill="white" transform="translate(0.378174 0.463013)"/>
</clipPath>
</defs>
</svg>
